<?xml version="1.0" encoding="UTF-8"?>
<svg xmlns="http://www.w3.org/2000/svg" viewBox="-1 -1 56 56" role="img" aria-label="TIS">
  <path fill="#036ef2" d="M20.6276 26.5576C20.5051 24.1262 18.5285 22.1541 16.0895 22.0319C14.0461 21.9301 12.2665 23.1041 11.4789 24.8244C11.2801 25.2576 10.8417 25.5317 10.3625 25.5317H10.2714C9.79403 25.5317 9.35375 25.2576 9.15498 24.8244C8.36924 23.1041 6.58963 21.9282 4.54441 22.0319C2.10534 22.1541 0.126982 24.1262 0.00623695 26.5576C-0.0959319 28.5797 1.06694 30.3444 2.77408 31.1351C3.23106 31.3462 3.52271 31.8054 3.52271 32.3073C3.52271 32.811 3.23106 33.2683 2.77408 33.4813C1.06694 34.272 -0.0940744 36.0349 0.00623695 38.0588C0.128839 40.4978 2.11649 42.4734 4.56482 42.5864C7.31593 42.7143 9.58597 40.5292 9.58597 37.8144C9.58597 35.8904 8.44353 34.2331 6.79953 33.4757C6.34627 33.2665 6.06392 32.8054 6.06392 32.3073C6.06392 31.8092 6.34627 31.3481 6.79953 31.1407C7.83605 30.6648 8.67203 29.8297 9.14944 28.7964C9.35375 28.3538 9.78844 28.0631 10.277 28.0631H10.3569C10.8455 28.0631 11.2801 28.3538 11.4845 28.7964C11.9619 29.8297 12.7977 30.6648 13.8344 31.1407C14.2876 31.3499 14.5699 31.811 14.5699 32.3073C14.5699 32.811 14.2783 33.2683 13.8213 33.4813C12.1142 34.272 10.9532 36.0349 11.0535 38.0588C11.1761 40.4978 13.1637 42.4734 15.6121 42.5864C18.3632 42.7143 20.6332 40.5292 20.6332 37.8144C20.6332 35.8904 19.4908 34.2331 17.8468 33.4757C17.3935 33.2665 17.1111 32.8054 17.1111 32.3073C17.1111 31.8036 17.4028 31.3462 17.8598 31.1333C19.567 30.3426 20.7279 28.5779 20.6276 26.5557V26.5576Z"/>
  <path fill="#036ef2" d="M31.6713 4.77731C31.6713 2.06263 29.4012 -0.122439 26.6501 0.00533215C24.2017 0.118289 22.2141 2.09411 22.0915 4.53288C21.9912 6.55687 23.1541 8.31972 24.8612 9.11041C25.3182 9.32147 25.608 9.77889 25.608 10.2807V10.2863C25.608 10.7825 25.3256 11.2418 24.8742 11.451C23.2283 12.2065 22.0859 13.8657 22.0859 15.7897C22.0859 17.7137 23.2283 19.3729 24.8742 20.1283C25.3275 20.3357 25.608 20.7968 25.608 21.2931V21.2986C25.608 21.795 25.3256 22.2542 24.8742 22.4634C23.2283 23.2189 22.0859 24.8781 22.0859 26.8021C22.0859 28.726 23.2283 30.3852 24.8742 31.1407C25.3275 31.3481 25.608 31.8092 25.608 32.3055V32.3111C25.608 32.8073 25.3256 33.2665 24.8742 33.4758C23.2283 34.2313 22.0859 35.8905 22.0859 37.8145C22.0859 39.7383 23.2283 41.3977 24.8742 42.1532C25.3275 42.3607 25.608 42.8216 25.608 43.3179V43.3232C25.608 43.8252 25.3182 44.2828 24.8612 44.4937C23.1522 45.2844 21.9893 47.0491 22.0915 49.0711C22.2141 51.5099 24.2017 53.486 26.6501 53.5986C29.4012 53.7264 31.6713 51.5415 31.6713 48.8269C31.6713 46.9009 30.5288 45.2438 28.8829 44.488C28.4297 44.2809 28.1492 43.8198 28.1492 43.3232V43.3179C28.1492 42.8216 28.4316 42.3622 28.8829 42.1532C30.5288 41.3977 31.6713 39.7383 31.6713 37.8145C31.6713 35.8905 30.5288 34.2313 28.8829 33.4758C28.4297 33.2684 28.1492 32.8073 28.1492 32.3111V32.3055C28.1492 31.8092 28.4316 31.35 28.8829 31.1407C30.5288 30.3852 31.6713 28.726 31.6713 26.8021C31.6713 24.8781 30.5288 23.2189 28.8829 22.4634C28.4297 22.256 28.1492 21.795 28.1492 21.2986V21.2931C28.1492 20.7968 28.4316 20.3376 28.8829 20.1283C30.5288 19.3729 31.6713 17.7137 31.6713 15.7897C31.6713 13.8657 30.5288 12.2065 28.8829 11.451C28.4297 11.2436 28.1492 10.7825 28.1492 10.2863V10.2807C28.1492 9.78444 28.4316 9.32519 28.8829 9.11596C30.5288 8.36042 31.6713 6.7013 31.6713 4.77731Z"/>
  <path fill="#036ef2" d="M49.2202 22.0301C47.1917 21.9283 45.423 23.0856 44.6281 24.7874C44.4164 25.241 43.9574 25.5299 43.456 25.5299H43.4465C42.9489 25.5299 42.488 25.2485 42.2781 24.7984C41.8008 23.7689 40.9646 22.9375 39.932 22.4616C39.4807 22.2542 39.1983 21.7931 39.1983 21.2968V21.2912C39.1983 20.7894 39.488 20.332 39.9451 20.121C41.6541 19.3303 42.8151 17.5655 42.7146 15.5434C42.5919 13.1046 40.6043 11.1288 38.1561 11.0158C35.4049 10.8881 33.1349 13.0731 33.1349 15.7878C33.1349 17.7137 34.2774 19.371 35.9232 20.1265C36.3765 20.3339 36.657 20.795 36.657 21.2912V21.2968C36.657 21.7986 36.3672 22.256 35.9102 22.4671C34.2012 23.2578 33.0383 25.0225 33.1405 27.0465C33.2631 29.4797 35.2415 31.4518 37.6824 31.5722C39.7127 31.6722 41.4832 30.5111 42.2763 28.8075C42.488 28.352 42.9469 28.0613 43.4503 28.0613C43.9482 28.0613 44.4106 28.3427 44.6185 28.7946C45.3768 30.4371 47.0411 31.5777 48.9748 31.5777C51.6981 31.5777 53.8902 29.3149 53.762 26.5724C53.6486 24.1337 51.6681 22.1504 49.2217 22.0282L49.2202 22.0301Z"/>
</svg>
